{
	"asset":{
		"generator":"Khronos glTF Blender I/O v4.0.44",
		"version":"2.0"
	},
	"extensionsUsed":[
		"KHR_lights_punctual"
	],
	"extensionsRequired":[
		"KHR_lights_punctual"
	],
	"extensions":{
		"KHR_lights_punctual":{
			"lights":[
				{
					"color":[
						1,
						1,
						1
					],
					"intensity":54351.41306588226,
					"type":"point",
					"name":"Light"
				}
			]
		}
	},
	"scene":0,
	"scenes":[
		{
			"name":"Scene",
			"nodes":[
				0,
				1,
				2
			]
		}
	],
	"nodes":[
		{
			"mesh":0,
			"name":"Cube"
		},
		{
			"extensions":{
				"KHR_lights_punctual":{
					"light":0
				}
			},
			"name":"Light-noimp",
			"rotation":[
				-0.28416627645492554,
				0.7269423007965088,
				0.34203392267227173,
				0.5232754945755005
			],
			"translation":[
				4.076245307922363,
				5.903861999511719,
				18.254411697387695
			]
		},
		{
			"camera":0,
			"name":"Camera-noimp",
			"rotation":[
				-0.22003494203090668,
				0.25943616032600403,
				0.06676561385393143,
				0.9379871487617493
			],
			"translation":[
				18.544513702392578,
				13.518394470214844,
				27.80630874633789
			]
		}
	],
	"cameras":[
		{
			"name":"Camera",
			"perspective":{
				"aspectRatio":1.7777777777777777,
				"yfov":0.39959652046304894,
				"zfar":100,
				"znear":0.10000000149011612
			},
			"type":"perspective"
		}
	],
	"materials":[
		{
			"doubleSided":true,
			"name":"Material creu",
			"pbrMetallicRoughness":{
				"baseColorTexture":{
					"index":0
				},
				"metallicFactor":0,
				"roughnessFactor":0.5
			}
		}
	],
	"meshes":[
		{
			"name":"Cube",
			"primitives":[
				{
					"attributes":{
						"POSITION":0,
						"NORMAL":1,
						"TEXCOORD_0":2,
						"TANGENT":3
					},
					"indices":4,
					"material":0
				}
			]
		}
	],
	"textures":[
		{
			"sampler":0,
			"source":0
		}
	],
	"images":[
		{
			"mimeType":"image/png",
			"name":"textura vaixell.png",
			"uri":"../../Models/textura%20vaixell.png"
		}
	],
	"accessors":[
		{
			"bufferView":0,
			"componentType":5126,
			"count":1156,
			"max":[
				2.9144957065582275,
				6.692142963409424,
				0.5607233047485352
			],
			"min":[
				-2.904237985610962,
				-10.73080062866211,
				-0.5709807872772217
			],
			"type":"VEC3"
		},
		{
			"bufferView":1,
			"componentType":5126,
			"count":1156,
			"type":"VEC3"
		},
		{
			"bufferView":2,
			"componentType":5126,
			"count":1156,
			"type":"VEC2"
		},
		{
			"bufferView":3,
			"componentType":5126,
			"count":1156,
			"type":"VEC4"
		},
		{
			"bufferView":4,
			"componentType":5123,
			"count":2634,
			"type":"SCALAR"
		}
	],
	"bufferViews":[
		{
			"buffer":0,
			"byteLength":13872,
			"byteOffset":0,
			"target":34962
		},
		{
			"buffer":0,
			"byteLength":13872,
			"byteOffset":13872,
			"target":34962
		},
		{
			"buffer":0,
			"byteLength":9248,
			"byteOffset":27744,
			"target":34962
		},
		{
			"buffer":0,
			"byteLength":18496,
			"byteOffset":36992,
			"target":34962
		},
		{
			"buffer":0,
			"byteLength":5268,
			"byteOffset":55488,
			"target":34963
		}
	],
	"samplers":[
		{
			"magFilter":9729,
			"minFilter":9987
		}
	],
	"buffers":[
		{
			"byteLength":60756,
			"uri":"Creu-1c78a8a2e4674da73986c3c17df557c8.bin"
		}
	]
}
