{
	"asset":{
		"generator":"Khronos glTF Blender I/O v4.0.44",
		"version":"2.0"
	},
	"extensionsUsed":[
		"KHR_lights_punctual",
		"KHR_materials_specular",
		"KHR_materials_ior"
	],
	"extensionsRequired":[
		"KHR_lights_punctual"
	],
	"extensions":{
		"KHR_lights_punctual":{
			"lights":[
				{
					"color":[
						1,
						1,
						1
					],
					"intensity":54351.41306588226,
					"type":"point",
					"name":"Light"
				}
			]
		}
	},
	"scene":0,
	"scenes":[
		{
			"name":"Scene",
			"nodes":[
				0,
				1,
				2,
				3,
				4
			]
		}
	],
	"nodes":[
		{
			"extensions":{
				"KHR_lights_punctual":{
					"light":0
				}
			},
			"name":"Light-noimp",
			"rotation":[
				-0.28416627645492554,
				0.7269423007965088,
				0.34203392267227173,
				0.5232754945755005
			],
			"translation":[
				4.076245307922363,
				5.903861999511719,
				-1.0054539442062378
			]
		},
		{
			"camera":0,
			"name":"Camera-noimp",
			"rotation":[
				-0.20997299253940582,
				0.3857799470424652,
				0.09062844514846802,
				0.8937962055206299
			],
			"translation":[
				7.358891487121582,
				4.958309173583984,
				6.925790786743164
			]
		},
		{
			"mesh":0,
			"name":"Cylinder",
			"rotation":[
				0.7071068286895752,
				0,
				0,
				0.7071068286895752
			]
		},
		{
			"mesh":1,
			"name":"BezierCurve",
			"rotation":[
				-0.5,
				-0.5,
				-0.5,
				0.5000000596046448
			],
			"translation":[
				-0.10678546130657196,
				-1.2250101566314697,
				-2.4721953868865967
			]
		},
		{
			"mesh":2,
			"name":"BezierCurve.001",
			"rotation":[
				0,
				0,
				-0.7071068286895752,
				0.7071068286895752
			],
			"scale":[
				0.18566596508026123,
				1,
				1
			],
			"translation":[
				0.057397373020648956,
				-1.4084926843643188,
				-2.232996702194214
			]
		}
	],
	"cameras":[
		{
			"name":"Camera",
			"perspective":{
				"aspectRatio":1.7777777777777777,
				"yfov":0.39959652046304894,
				"zfar":100,
				"znear":0.10000000149011612
			},
			"type":"perspective"
		}
	],
	"materials":[
		{
			"doubleSided":true,
			"extensions":{
				"KHR_materials_specular":{
					"specularFactor":0.4545460045337677,
					"specularColorTexture":{
						"index":0
					}
				},
				"KHR_materials_ior":{
					"ior":1.4500000476837158
				}
			},
			"name":"Textura pistola",
			"pbrMetallicRoughness":{
				"baseColorTexture":{
					"index":1
				},
				"metallicFactor":0.8636358976364136,
				"roughnessFactor":0.6181818246841431
			}
		}
	],
	"meshes":[
		{
			"name":"Cylinder",
			"primitives":[
				{
					"attributes":{
						"POSITION":0,
						"NORMAL":1,
						"TEXCOORD_0":2
					},
					"indices":3,
					"material":0
				}
			]
		},
		{
			"name":"BezierCurve",
			"primitives":[
				{
					"attributes":{
						"POSITION":4,
						"NORMAL":5,
						"TEXCOORD_0":6,
						"TANGENT":7
					},
					"indices":8,
					"material":0
				}
			]
		},
		{
			"name":"BezierCurve.001",
			"primitives":[
				{
					"attributes":{
						"POSITION":9,
						"NORMAL":10,
						"TEXCOORD_0":11,
						"TANGENT":12
					},
					"indices":13,
					"material":0
				}
			]
		}
	],
	"textures":[
		{
			"sampler":0,
			"source":0
		},
		{
			"sampler":0,
			"source":0
		}
	],
	"images":[
		{
			"mimeType":"image/png",
			"name":"textura vaixell.png",
			"uri":"../../Models/textura%20vaixell.png"
		}
	],
	"accessors":[
		{
			"bufferView":0,
			"componentType":5126,
			"count":3043,
			"max":[
				0.7868416905403137,
				6.038508892059326,
				2.3076393604278564
			],
			"min":[
				-0.8539924621582031,
				-7.223016738891602,
				-1.4415215253829956
			],
			"type":"VEC3"
		},
		{
			"bufferView":1,
			"componentType":5126,
			"count":3043,
			"type":"VEC3"
		},
		{
			"bufferView":2,
			"componentType":5126,
			"count":3043,
			"type":"VEC2"
		},
		{
			"bufferView":3,
			"componentType":5123,
			"count":4731,
			"type":"SCALAR"
		},
		{
			"bufferView":4,
			"componentType":5126,
			"count":784,
			"max":[
				1.2060165405273438,
				0.20602302253246307,
				0.09770436584949493
			],
			"min":[
				-1.1290823221206665,
				-0.20602302253246307,
				-0.8819280862808228
			],
			"type":"VEC3"
		},
		{
			"bufferView":5,
			"componentType":5126,
			"count":784,
			"type":"VEC3"
		},
		{
			"bufferView":6,
			"componentType":5126,
			"count":784,
			"type":"VEC2"
		},
		{
			"bufferView":7,
			"componentType":5126,
			"count":784,
			"type":"VEC4"
		},
		{
			"bufferView":8,
			"componentType":5123,
			"count":1188,
			"type":"SCALAR"
		},
		{
			"bufferView":9,
			"componentType":5126,
			"count":300,
			"max":[
				1.5985901355743408,
				0.06062178686261177,
				0.04010942205786705
			],
			"min":[
				-0.7561540603637695,
				-0.06062178686261177,
				-0.3740728199481964
			],
			"type":"VEC3"
		},
		{
			"bufferView":10,
			"componentType":5126,
			"count":300,
			"type":"VEC3"
		},
		{
			"bufferView":11,
			"componentType":5126,
			"count":300,
			"type":"VEC2"
		},
		{
			"bufferView":12,
			"componentType":5126,
			"count":300,
			"type":"VEC4"
		},
		{
			"bufferView":13,
			"componentType":5123,
			"count":456,
			"type":"SCALAR"
		}
	],
	"bufferViews":[
		{
			"buffer":0,
			"byteLength":36516,
			"byteOffset":0,
			"target":34962
		},
		{
			"buffer":0,
			"byteLength":36516,
			"byteOffset":36516,
			"target":34962
		},
		{
			"buffer":0,
			"byteLength":24344,
			"byteOffset":73032,
			"target":34962
		},
		{
			"buffer":0,
			"byteLength":9462,
			"byteOffset":97376,
			"target":34963
		},
		{
			"buffer":0,
			"byteLength":9408,
			"byteOffset":106840,
			"target":34962
		},
		{
			"buffer":0,
			"byteLength":9408,
			"byteOffset":116248,
			"target":34962
		},
		{
			"buffer":0,
			"byteLength":6272,
			"byteOffset":125656,
			"target":34962
		},
		{
			"buffer":0,
			"byteLength":12544,
			"byteOffset":131928,
			"target":34962
		},
		{
			"buffer":0,
			"byteLength":2376,
			"byteOffset":144472,
			"target":34963
		},
		{
			"buffer":0,
			"byteLength":3600,
			"byteOffset":146848,
			"target":34962
		},
		{
			"buffer":0,
			"byteLength":3600,
			"byteOffset":150448,
			"target":34962
		},
		{
			"buffer":0,
			"byteLength":2400,
			"byteOffset":154048,
			"target":34962
		},
		{
			"buffer":0,
			"byteLength":4800,
			"byteOffset":156448,
			"target":34962
		},
		{
			"buffer":0,
			"byteLength":912,
			"byteOffset":161248,
			"target":34963
		}
	],
	"samplers":[
		{
			"magFilter":9729,
			"minFilter":9987
		}
	],
	"buffers":[
		{
			"byteLength":162160,
			"uri":"Model%20pistola-8cec60df690d760ed3561e34969768c7.bin"
		}
	]
}
