{
	"asset":{
		"generator":"Khronos glTF Blender I/O v4.0.44",
		"version":"2.0"
	},
	"extensionsUsed":[
		"KHR_lights_punctual"
	],
	"extensionsRequired":[
		"KHR_lights_punctual"
	],
	"extensions":{
		"KHR_lights_punctual":{
			"lights":[
				{
					"color":[
						1,
						1,
						1
					],
					"intensity":54351.41306588226,
					"type":"point",
					"name":"Light"
				}
			]
		}
	},
	"scene":0,
	"scenes":[
		{
			"name":"Scene",
			"nodes":[
				0,
				1,
				2
			]
		}
	],
	"nodes":[
		{
			"extensions":{
				"KHR_lights_punctual":{
					"light":0
				}
			},
			"name":"light-noimp",
			"rotation":[
				-0.28416627645492554,
				0.7269423007965088,
				0.34203392267227173,
				0.5232754945755005
			],
			"translation":[
				4.076245307922363,
				5.903861999511719,
				13.671258926391602
			]
		},
		{
			"camera":0,
			"name":"Camera-noimp",
			"rotation":[
				-0.20997297763824463,
				0.38577988743782043,
				0.09062846750020981,
				0.8937962651252747
			],
			"translation":[
				7.358891487121582,
				4.958309173583984,
				6.925790786743164
			]
		},
		{
			"mesh":0,
			"name":"Blade",
			"rotation":[
				0.04991135373711586,
				0,
				0,
				0.9987536668777466
			],
			"scale":[
				0.39376014471054077,
				0.7901548147201538,
				0.4506694972515106
			],
			"translation":[
				0,
				0,
				0.09838719666004181
			]
		}
	],
	"cameras":[
		{
			"name":"Camera.002",
			"perspective":{
				"aspectRatio":1.7777777777777777,
				"yfov":0.39959652046304894,
				"zfar":100,
				"znear":0.10000000149011612
			},
			"type":"perspective"
		}
	],
	"materials":[
		{
			"doubleSided":true,
			"name":"Textura navalla",
			"pbrMetallicRoughness":{
				"baseColorTexture":{
					"index":0
				},
				"metallicFactor":0,
				"roughnessFactor":0.5
			}
		}
	],
	"meshes":[
		{
			"name":"Cube.002",
			"primitives":[
				{
					"attributes":{
						"POSITION":0,
						"NORMAL":1,
						"TEXCOORD_0":2
					},
					"indices":3,
					"material":0
				}
			]
		}
	],
	"textures":[
		{
			"sampler":0,
			"source":0
		}
	],
	"images":[
		{
			"mimeType":"image/png",
			"name":"textura vaixell.png",
			"uri":"../../Models/textura%20vaixell.png"
		}
	],
	"accessors":[
		{
			"bufferView":0,
			"componentType":5126,
			"count":1571,
			"max":[
				0.1477431207895279,
				0.2762678563594818,
				2.117556095123291
			],
			"min":[
				-0.1477431207895279,
				-0.2698480486869812,
				-3.2216529846191406
			],
			"type":"VEC3"
		},
		{
			"bufferView":1,
			"componentType":5126,
			"count":1571,
			"type":"VEC3"
		},
		{
			"bufferView":2,
			"componentType":5126,
			"count":1571,
			"type":"VEC2"
		},
		{
			"bufferView":3,
			"componentType":5123,
			"count":2760,
			"type":"SCALAR"
		}
	],
	"bufferViews":[
		{
			"buffer":0,
			"byteLength":18852,
			"byteOffset":0,
			"target":34962
		},
		{
			"buffer":0,
			"byteLength":18852,
			"byteOffset":18852,
			"target":34962
		},
		{
			"buffer":0,
			"byteLength":12568,
			"byteOffset":37704,
			"target":34962
		},
		{
			"buffer":0,
			"byteLength":5520,
			"byteOffset":50272,
			"target":34963
		}
	],
	"samplers":[
		{
			"magFilter":9729,
			"minFilter":9987
		}
	],
	"buffers":[
		{
			"byteLength":55792,
			"uri":"navalla-d24b27d1b6f87584c0a71f09fd23035e.bin"
		}
	]
}
